PathFileType	4	(X/Y/Z)	/Users/itak/Documents/Research/Walk-IL/dataset/trc/00400_00012.trc
DataRate	CameraRate	NumFrames	NumMarkers	Units	OrigDataRate	OrigDataStartFrame	OrigNumFrames
100.000000	100.000000	4	53	mm	100.000000	81	649
Frame#	Time	RPSI			LPSI			L3			STRN			T10			C7			CLAV			RBAK			LBAK			LSHO			LUPA			LAEL			LAOL			LWTS			LWPS			LFRA			LIFD			LHPS			LHTS			RSHO			RUPA			RAEL			RAOL			RWTS			RWPS			RFRA			RIFD			RHTS			RHPS			RBHD			LFHD			RFHD			LBHD			LHIP			RHIP			RASI			LASI			LKNE			LTHI			LANK			LTIP			LTOE			LMT1			LMT5			LHEE			RKNE			RTHI			RANK			RTIP			RTOE			RMT1			RMT5			RHEE			
		X1	Y1	Z1	X2	Y2	Z2	X3	Y3	Z3	X4	Y4	Z4	X5	Y5	Z5	X6	Y6	Z6	X7	Y7	Z7	X8	Y8	Z8	X9	Y9	Z9	X10	Y10	Z10	X11	Y11	Z11	X12	Y12	Z12	X13	Y13	Z13	X14	Y14	Z14	X15	Y15	Z15	X16	Y16	Z16	X17	Y17	Z17	X18	Y18	Z18	X19	Y19	Z19	X20	Y20	Z20	X21	Y21	Z21	X22	Y22	Z22	X23	Y23	Z23	X24	Y24	Z24	X25	Y25	Z25	X26	Y26	Z26	X27	Y27	Z27	X28	Y28	Z28	X29	Y29	Z29	X30	Y30	Z30	X31	Y31	Z31	X32	Y32	Z32	X33	Y33	Z33	X34	Y34	Z34	X35	Y35	Z35	X36	Y36	Z36	X37	Y37	Z37	X38	Y38	Z38	X39	Y39	Z39	X40	Y40	Z40	X41	Y41	Z41	X42	Y42	Z42	X43	Y43	Z43	X44	Y44	Z44	X45	Y45	Z45	X46	Y46	Z46	X47	Y47	Z47	X48	Y48	Z48	X49	Y49	Z49	X50	Y50	Z50	X51	Y51	Z51	X52	Y52	Z52	X53	Y53	Z53	

82	0.8100000000000001	-15.45984554290771	974.5227661132812	1253.525268554688	-24.26975250244141	959.6849975585938	1120.850830078125	-21.19734573364258	1051.657836914062	1189.070678710938	219.6145935058594	1200.811889648438	1195.3271484375	-31.25968170166016	1155.721435546875	1184.3349609375	15.25760936737061	1403.593139648438	1180.405151367188	167.3131713867188	1319.61181640625	1194.502685546875	-37.19179916381836	1258.621459960938	1244.902221679688	7.267527103424072	1368.387573242188	1073.879272460938	100.0524444580078	1380.985961914062	1031.60498046875	90.57292175292969	1266.692993164062	956.0642700195312	126.9035415649414	1071.457763671875	926.2061157226562	60.37457656860352	1044.40576171875	971.7780151367188	230.9743194580078	867.777099609375	992.9349975585938	203.1363677978516	850.2462768554688	917.5884399414062	158.100830078125	969.7685546875	918.9351196289062	261.2811279296875	689.672119140625	986.5215454101562	225.5140838623047	766.9006958007812	930.4332885742188	266.7538146972656	775.2896728515625	978.604736328125	67.27687835693359	1375.641235351562	1343.353271484375	56.91503143310547	1309.006591796875	1402.112182617188	97.18110656738281	1048.01904296875	1445.552856445312	70.63835906982422	1036.67626953125	1356.360107421875	245.1854553222656	843.6893310546875	1417.628784179688	205.3955841064453	830.184326171875	1477.890502929688	131.8750152587891	987.9105834960938	1462.7578125	255.7491455078125	668.7094116210938	1424.034790039062	269.2029113769531	739.4644165039062	1437.331665039062	214.9376373291016	743.1371459960938	1478.31640625	57.99280548095703	1584.703369140625	1274.318969726562	213.0017242431641	1592.184204101562	1148.585083007812	192.0306701660156	1593.4521484375	1269.878173828125	67.58403778076172	1580.4736328125	1112.85791015625	63.61437225341797	949.3561401367188	1007.190307617188	72.55290222167969	954.170166015625	1367.09716796875	204.6272277832031	965.3518676757812	1309.947875976562	180.4239807128906	955.073486328125	1047.740112304688	212.34716796875	469.3520812988281	1045.517578125	181.4588165283203	604.7922973632812	1031.439208984375	4.201245307922363	65.74665069580078	1062.654541015625	102.6184692382812	257.5863952636719	1040.78662109375	215.5077514648438	46.21969604492188	1110.953369140625	140.1785125732422	48.0184211730957	1147.382080078125	127.4751739501953	47.17828750610352	1042.9794921875	-32.53793334960938	67.59223175048828	1120.291625976562	142.7587432861328	464.5148315429688	1325.265014648438	164.7254791259766	727.5006713867188	1358.377685546875	32.86098861694336	57.67159652709961	1291.164916992188	139.8420867919922	335.8857727050781	1306.501953125	212.7110290527344	44.14313125610352	1233.828125	138.1322631835938	44.96928787231445	1201.19580078125	115.5627136230469	47.57764434814453	1299.237548828125	-40.76143264770508	43.12323760986328	1236.1533203125	
83	0.8200000000000001	-13.31297492980957	974.4246826171875	1254.328979492188	-22.98567581176758	959.3594970703125	1121.78076171875	-19.39774131774902	1051.755493164062	1189.888061523438	221.7188415527344	1200.523193359375	1194.456909179688	-29.11365699768066	1155.838745117188	1185.445190429688	17.51130867004395	1403.538940429688	1181.306884765625	169.4958648681641	1319.32958984375	1194.173950195312	-34.6364860534668	1258.454956054688	1245.839965820312	8.699321746826172	1368.519897460938	1074.744873046875	101.1884536743164	1381.066284179688	1031.833129882812	90.96071624755859	1266.871826171875	956.2159423828125	126.8019790649414	1071.646118164062	925.6928100585938	60.67864227294922	1044.56005859375	971.858642578125	230.8627624511719	867.4530029296875	990.8279418945312	202.0737152099609	850.2265625	915.7632446289062	157.5377349853516	969.8639526367188	917.9153442382812	260.7305603027344	689.31201171875	983.281005859375	224.4085388183594	766.8637084960938	927.990234375	266.2528076171875	774.9999389648438	975.6748657226562	70.52251434326172	1375.222290039062	1343.79248046875	60.39498519897461	1308.46435546875	1402.4287109375	100.9229202270508	1047.570190429688	1445.946899414062	73.89653778076172	1036.170288085938	1356.533935546875	248.9286193847656	843.3402099609375	1417.71484375	208.8968658447266	829.8009643554688	1477.8154296875	135.5221252441406	987.4512939453125	1462.846923828125	259.5208129882812	668.36279296875	1424.38232421875	272.9066162109375	739.0891723632812	1437.63818359375	218.5173492431641	742.8240966796875	1478.449096679688	61.85421752929688	1584.67724609375	1275.302612304688	215.0459442138672	1591.765014648438	1147.274047851562	195.8701324462891	1593.09228515625	1268.850830078125	69.07517242431641	1580.373657226562	1113.666381835938	64.43995666503906	949.121337890625	1007.6494140625	75.33954620361328	954.0385131835938	1367.2890625	207.1556243896484	965.0369873046875	1309.541748046875	181.3894805908203	955.1761474609375	1047.535888671875	220.0789642333984	470.9617004394531	1045.9091796875	187.4749908447266	605.7855834960938	1031.790161132812	7.475383758544922	69.77672576904297	1063.78759765625	108.4115829467773	260.2379455566406	1041.550048828125	218.239990234375	46.57201766967773	1111.500854492188	143.2691040039062	49.27057266235352	1148.08154296875	130.226318359375	48.92333221435547	1043.601684570312	-28.96697807312012	72.17021942138672	1121.425659179688	143.9285430908203	464.2100219726562	1325.13427734375	166.9392242431641	727.18212890625	1358.174926757812	32.85715484619141	57.68300247192383	1291.149536132812	140.7060241699219	335.6298828125	1306.365844726562	212.6839447021484	44.12114715576172	1233.738159179688	138.1061859130859	44.92291259765625	1201.144653320312	115.5737152099609	47.59793472290039	1299.192016601562	-40.75972747802734	43.01459121704102	1236.138793945312	
84	0.8300000000000001	-11.00211906433105	974.4740600585938	1255.1064453125	-21.37256813049316	959.2098388671875	1122.6650390625	-17.48505783081055	1051.954833984375	1190.765991210938	223.9461975097656	1200.373779296875	1193.543579101562	-26.8680591583252	1156.03515625	1186.599609375	19.90288352966309	1403.600219726562	1182.1650390625	171.8157653808594	1319.196044921875	1193.776733398438	-31.93072128295898	1258.417602539062	1246.768798828125	10.25046920776367	1368.746948242188	1075.575561523438	102.4073791503906	1381.25732421875	1032.005859375	91.40129089355469	1267.171875	956.32470703125	126.6668548583984	1071.94580078125	925.1779174804688	60.97181701660156	1044.85302734375	971.9599609375	230.6317443847656	867.18212890625	988.6785888671875	200.8682250976562	850.27783203125	913.9149780273438	156.8814697265625	970.054443359375	916.8855590820312	259.9231567382812	688.985107421875	980.0144653320312	223.0989532470703	766.8793334960938	925.528076171875	265.5645751953125	774.732177734375	972.7060546875	73.92771148681641	1374.968994140625	1344.158447265625	64.04409027099609	1308.106567382812	1402.68701171875	104.8671493530273	1047.3271484375	1446.274047851562	77.32992553710938	1035.835083007812	1356.625122070312	252.8754119873047	843.1824340820312	1417.601806640625	212.6592559814453	829.6029663085938	1477.552978515625	139.343994140625	987.1495361328125	1462.811401367188	263.5644226074219	668.2186279296875	1424.548706054688	276.8782043457031	738.9124755859375	1437.725952148438	222.3776550292969	742.7001953125	1478.402099609375	65.87989807128906	1584.719848632812	1276.228271484375	217.2183837890625	1591.483154296875	1145.918823242188	199.861083984375	1592.7998046875	1267.761352539062	70.72396087646484	1580.429077148438	1114.4443359375	65.49124145507812	949.2099609375	1008.031982421875	78.23670959472656	953.9432373046875	1367.4716796875	209.7965850830078	964.7667846679688	1309.130493164062	182.5158081054688	955.4840698242188	1047.347778320312	227.7348480224609	472.793701171875	1046.099609375	193.3775787353516	607.0209350585938	1031.944580078125	11.58679866790771	73.62760925292969	1065.03515625	114.6077651977539	262.8945617675781	1042.299682617188	221.822998046875	47.33935928344727	1112.167724609375	147.2271118164062	50.75697708129883	1148.913330078125	133.8441009521484	50.80887222290039	1044.346069335938	-24.55853080749512	76.50790405273438	1122.700927734375	144.9792938232422	463.9548950195312	1324.93505859375	169.1488037109375	726.86962890625	1357.905151367188	32.84330368041992	57.70602798461914	1291.12646484375	141.4784240722656	335.4267272949219	1306.181518554688	212.6478576660156	44.11587905883789	1233.622924804688	138.0829010009766	44.88752365112305	1201.073608398438	115.5924835205078	47.63855743408203	1299.121337890625	-40.75960540771484	42.89310455322266	1236.122680664062	
85	0.84	-8.521069526672363	974.6613159179688	1255.8349609375	-19.42586135864258	959.218017578125	1123.46875	-15.44517421722412	1052.227416992188	1191.689453125	226.2974853515625	1200.353637695312	1192.610107421875	-24.52983665466309	1156.296630859375	1187.781616210938	22.43558502197266	1403.762817382812	1182.976318359375	174.2806854248047	1319.2060546875	1193.324096679688	-29.0702953338623	1258.501220703125	1247.694946289062	11.92687225341797	1369.049072265625	1076.379638671875	103.7186050415039	1381.542236328125	1032.1298828125	91.89365386962891	1267.577880859375	956.4014282226562	126.4884338378906	1072.341796875	924.6639404296875	61.24502944946289	1045.273681640625	972.09033203125	230.2834320068359	866.9622802734375	986.49462890625	199.5234527587891	850.3909912109375	912.0547485351562	156.1257934570312	970.328125	915.8500366210938	258.8655700683594	688.6919555664062	976.7572021484375	221.5887145996094	766.9364624023438	923.070556640625	264.6939086914062	774.4812622070312	969.7207641601562	77.49266815185547	1374.881713867188	1344.456665039062	67.86167144775391	1307.939331054688	1402.8974609375	108.9944763183594	1047.28857421875	1446.54345703125	80.92637634277344	1035.68017578125	1356.6416015625	257.0326232910156	843.232666015625	1417.277465820312	216.6963195800781	829.5850219726562	1477.094970703125	143.3304443359375	987.0029296875	1462.659423828125	267.904296875	668.29052734375	1424.456298828125	281.1402282714844	738.9512329101562	1437.546508789062	226.5424499511719	742.758544921875	1478.130004882812	70.06773376464844	1584.833862304688	1277.085327148438	219.5209503173828	1591.3212890625	1144.514526367188	203.9939117431641	1592.572631835938	1266.608764648438	72.53956604003906	1580.627075195312	1115.1787109375	66.79957580566406	949.6021728515625	1008.313598632812	81.2398681640625	953.8804321289062	1367.63427734375	212.5538940429688	964.53076171875	1308.721923828125	183.8192749023438	955.9701538085938	1047.176635742188	235.2752990722656	474.8113098144531	1046.093627929688	199.1380615234375	608.4618530273438	1031.906494140625	16.6434326171875	77.15547943115234	1066.37548828125	121.2149124145508	265.4769592285156	1043.023193359375	226.4138793945312	48.49475479125977	1112.925903320312	152.192138671875	52.44049453735352	1149.854858398438	138.4615478515625	52.75717926025391	1045.199951171875	-19.20672988891602	80.449462890625	1124.1064453125	145.9070129394531	463.7479248046875	1324.6826171875	171.3462371826172	726.56201171875	1357.576538085938	32.82069396972656	57.73880386352539	1291.09765625	142.1510009765625	335.2723388671875	1305.962768554688	212.6041717529297	44.12688064575195	1233.486450195312	138.0667572021484	44.86659622192383	1200.98291015625	115.6193771362305	47.69746398925781	1299.028076171875	-40.76557159423828	42.76568603515625	1236.10791015625	
